<svg width="104" height="104" viewBox="0 0 104 104" fill="none" xmlns="http://www.w3.org/2000/svg">
<path d="M44.582 0L40.8125 11.5195C35.1104 13.0922 29.8957 15.8312 25.4414 19.4727L28.1172 13.6562L23.4141 11.0977C21.8561 10.2517 19.9278 10.5312 18.6758 11.7852L9.98438 20.4727L15.4766 31.3086C12.6662 36.2581 10.8105 41.8202 10.2148 47.7617L8 41.7734L2.86719 43.293C1.16719 43.795 0 45.3569 0 47.1289V59.418L11.5195 63.1875C13.0922 68.8896 15.8312 74.1043 19.4727 78.5586L13.6562 75.8828L11.0977 80.5859C10.2517 82.1439 10.5312 84.0722 11.7852 85.3242L20.4727 94.0156L31.3086 88.5234C36.2581 91.3338 41.8202 93.1895 47.7617 93.7852L41.7734 96L43.293 101.133C43.795 102.833 45.3569 104 47.1289 104H59.418L63.1875 92.4805C68.8896 90.9078 74.1043 88.1688 78.5586 84.5273L75.8828 90.3438L80.5859 92.9023C82.1439 93.7483 84.0722 93.4688 85.3242 92.2148L94.0156 83.5273L88.5234 72.6914C91.3338 67.7419 93.1895 62.1798 93.7852 56.2383L96 62.2266L101.133 60.707C102.833 60.205 104 58.6431 104 56.8711V44.582L92.4805 40.8125C90.9078 35.1104 88.1688 29.8957 84.5273 25.4414L90.3438 28.1172L92.9023 23.4141C93.7483 21.8561 93.4688 19.9278 92.2148 18.6758L83.5273 9.98438L72.6914 15.4766C67.7419 12.6662 62.1798 10.8105 56.2383 10.2148L62.2266 8L60.707 2.86719C60.205 1.16719 58.6431 0 56.8711 0H44.582ZM52 20C69.674 20 84 34.326 84 52C84 69.672 69.674 84 52 84C34.326 84 20 69.672 20 52C20 34.326 34.326 20 52 20ZM52 28C38.746 28 28 38.746 28 52C28 65.254 38.746 76 52 76C65.254 76 76 65.254 76 52C76 38.746 65.254 28 52 28ZM52 44C56.418 44 60 47.582 60 52C60 56.418 56.418 60 52 60C47.582 60 44 56.418 44 52C44 47.582 47.582 44 52 44Z" fill="white"/>
</svg>
